<?xml version="1.0" standalone="no"?><!DOCTYPE svg PUBLIC "-//W3C//DTD SVG 1.1//EN" "http://www.w3.org/Graphics/SVG/1.1/DTD/svg11.dtd"><svg t="1525761876390" class="icon" style="" viewBox="0 0 1024 1024" version="1.1" xmlns="http://www.w3.org/2000/svg" p-id="3377" xmlns:xlink="http://www.w3.org/1999/xlink" width="200" height="200"><defs><style type="text/css"></style></defs><path d="M828.341137 412.00468c-0.058651-0.402176-0.159195-0.779217-0.226225-1.181393a26.191744 26.191744 0 0 0-0.477584-2.279c-0.117301-0.452449-0.284875-0.879761-0.427313-1.315453-0.217846-0.661915-0.435691-1.33221-0.69543-1.977367-0.184331-0.452449-0.402176-0.896518-0.611643-1.33221a22.748108 22.748108 0 0 0-0.921655-1.801415c-0.25136-0.435691-0.519478-0.854625-0.770838-1.265181a25.177924 25.177924 0 0 0-3.435258-4.298261 18.474983 18.474983 0 0 0-1.080849-1.064092 32.391965 32.391965 0 0 0-1.541677-1.298695c-0.410555-0.31839-0.804353-0.636779-1.231665-0.930033-0.159195-0.100544-0.301632-0.234603-0.452449-0.335147L527.094186 199.999018a27.205564 27.205564 0 0 0-30.179994 0L207.539827 392.918054c-0.150816 0.100544-0.293254 0.234603-0.452448 0.335147a27.565847 27.565847 0 0 0-1.223287 0.930033 25.747674 25.747674 0 0 0-4.918283 5.010449 22.203494 22.203494 0 0 0-1.1395 1.6506 19.723405 19.723405 0 0 0-1.700872 3.066595c-0.209467 0.435691-0.427313 0.879761-0.603265 1.33221a24.06356 24.06356 0 0 0-0.69543 1.977368c-0.142438 0.435691-0.301632 0.863004-0.427312 1.315452-0.201088 0.745702-0.335147 1.516541-0.477585 2.279-0.067029 0.402176-0.167574 0.779217-0.217845 1.181394a26.141472 26.141472 0 0 0-0.251361 3.54418V608.459518c0 1.198151 0.092165 2.379544 0.251361 3.560938 0.050272 0.385419 0.150816 0.779217 0.217845 1.164636 0.142438 0.770838 0.276496 1.533298 0.477585 2.279 0.12568 0.452449 0.284875 0.879761 0.427312 1.315452 0.217846 0.661915 0.435691 1.33221 0.69543 1.994125 0.184331 0.452449 0.402176 0.88814 0.603265 1.315453 0.293254 0.611643 0.594886 1.214908 0.921655 1.809794 0.25136 0.418934 0.511099 0.829489 0.779217 1.248423 0.360283 0.56975 0.737324 1.114364 1.1395 1.650599 0.301632 0.418934 0.620022 0.795974 0.938411 1.181394 0.427313 0.502721 0.871382 0.997063 1.348967 1.466268 0.360283 0.368662 0.712188 0.728945 1.089228 1.064092 0.485963 0.452449 1.005441 0.88814 1.541677 1.298695 0.402176 0.31839 0.795974 0.636779 1.223287 0.930033 0.159195 0.100544 0.301632 0.234603 0.452448 0.335147l289.374365 192.919036a27.197185 27.197185 0 0 0 30.188373 0l289.374365-192.919036c0.150816-0.100544 0.293254-0.234603 0.452449-0.335147 0.427313-0.301632 0.82111-0.611643 1.231665-0.930033 0.527857-0.418934 1.038956-0.846246 1.541677-1.298695 0.37704-0.335147 0.728945-0.69543 1.080849-1.064092 0.477585-0.469206 0.921654-0.971927 1.357346-1.466268 0.31839-0.385419 0.636779-0.76246 0.930033-1.181394 0.410555-0.536235 0.787596-1.080849 1.147878-1.650599 0.259739-0.418934 0.527857-0.829489 0.770839-1.248423 0.343526-0.603265 0.636779-1.198151 0.921654-1.809794 0.209467-0.435691 0.418934-0.863004 0.611644-1.315453 0.268118-0.661915 0.477585-1.33221 0.69543-1.994125 0.142438-0.435691 0.310011-0.863004 0.427312-1.315452 0.201088-0.754081 0.343526-1.516541 0.477585-2.279 0.067029-0.385419 0.167574-0.779217 0.226224-1.164636 0.150816-1.181393 0.242982-2.362787 0.242982-3.560938V415.548861a29.157796 29.157796 0 0 0-0.25136-3.544181zM539.209753 273.480015L752.380052 415.582375l-95.215285 63.703081-117.955014-78.902001V273.480015z m-54.419506 0v126.90344l-117.946635 78.902001L271.619948 415.582375 484.790247 273.480015zM249.835388 466.474459l68.068372 45.52973-68.068372 45.529731V466.474459zM484.790247 750.536743l-213.170299-142.102361 95.223664-63.677945 117.946635 78.885244v126.895062z m27.213942-174.167558l-96.229104-64.364996 96.229104-64.364996 96.220726 64.364996-96.220726 64.364996z m27.205564 174.167558V623.633302l117.955014-78.885243 95.215285 63.677944-213.170299 142.11074z m234.954859-193.002823l-68.059993-45.529731 68.059993-45.52973v91.059461z" fill="#13227a" p-id="3378"></path></svg>